<svg id="svg" version="1.1" xmlns="http://www.w3.org/2000/svg" xmlns:xlink="http://www.w3.org/1999/xlink" width="100%" height="100%" viewBox="0, 0, 400,99.17127071823204"><g id="svgg"><path id="path0" d="M210.944 3.278 C 210.733 3.489,210.835 3.667,211.167 3.667 C 211.352 3.667,211.500 3.556,211.500 3.417 C 211.500 3.163,211.147 3.075,210.944 3.278 M285.333 22.329 C 285.196 22.420,284.502 22.496,283.792 22.497 C 283.081 22.499,282.500 22.564,282.500 22.643 C 282.500 22.721,281.881 22.837,281.125 22.899 C 280.369 22.962,279.725 23.085,279.694 23.173 C 279.664 23.261,279.420 23.333,279.153 23.333 C 278.885 23.333,278.667 23.401,278.667 23.484 C 278.667 23.567,278.292 23.687,277.833 23.750 C 277.375 23.813,277.000 23.933,277.000 24.016 C 277.000 24.099,276.813 24.167,276.583 24.167 C 276.354 24.167,276.167 24.242,276.167 24.333 C 276.167 24.425,276.009 24.500,275.817 24.500 C 275.466 24.500,274.323 24.969,274.167 25.177 C 274.121 25.238,273.896 25.347,273.667 25.418 C 273.438 25.489,272.989 25.724,272.670 25.940 C 272.350 26.156,272.022 26.333,271.939 26.333 C 271.857 26.333,271.667 26.465,271.517 26.625 C 271.240 26.922,270.780 27.244,270.337 27.450 C 270.202 27.513,269.930 27.738,269.735 27.949 C 269.539 28.160,269.323 28.333,269.255 28.333 C 269.042 28.333,265.171 32.147,264.500 33.018 C 264.271 33.315,263.990 33.653,263.875 33.767 C 263.760 33.882,263.667 34.024,263.667 34.083 C 263.667 34.142,263.573 34.295,263.458 34.423 C 262.964 34.974,262.833 35.163,262.833 35.326 C 262.833 35.422,262.763 35.500,262.678 35.500 C 262.592 35.500,262.470 35.669,262.405 35.875 C 262.341 36.081,262.242 36.287,262.186 36.333 C 262.021 36.467,261.665 37.059,261.559 37.375 C 261.505 37.535,261.395 37.667,261.314 37.667 C 261.233 37.667,261.167 37.817,261.167 38.000 C 261.167 38.183,261.098 38.333,261.013 38.333 C 260.929 38.333,260.810 38.558,260.750 38.833 C 260.690 39.108,260.578 39.333,260.501 39.333 C 260.425 39.333,260.312 39.633,260.250 40.000 C 260.188 40.367,260.069 40.667,259.985 40.667 C 259.902 40.667,259.833 40.817,259.833 41.000 C 259.833 41.183,259.765 41.333,259.682 41.333 C 259.599 41.333,259.480 41.708,259.417 42.167 C 259.354 42.625,259.234 43.000,259.151 43.000 C 259.068 43.000,259.000 43.181,259.000 43.403 C 259.000 43.624,258.926 43.831,258.835 43.861 C 258.744 43.892,258.621 44.385,258.561 44.958 C 258.501 45.531,258.388 46.000,258.310 46.000 C 258.231 46.000,258.167 46.294,258.167 46.653 C 258.167 47.027,258.078 47.335,257.958 47.375 C 257.797 47.429,257.750 48.737,257.750 53.167 C 257.750 57.596,257.797 58.905,257.958 58.958 C 258.073 58.997,258.167 59.280,258.167 59.587 C 258.167 59.895,258.235 60.189,258.318 60.240 C 258.401 60.292,258.520 60.709,258.583 61.167 C 258.646 61.625,258.766 62.000,258.849 62.000 C 258.932 62.000,259.000 62.188,259.000 62.417 C 259.000 62.646,259.072 62.833,259.159 62.833 C 259.247 62.833,259.367 63.096,259.428 63.417 C 259.488 63.737,259.604 64.000,259.685 64.000 C 259.767 64.000,259.833 64.112,259.833 64.250 C 259.833 64.387,259.905 64.500,259.992 64.500 C 260.080 64.500,260.201 64.762,260.261 65.083 C 260.321 65.404,260.428 65.667,260.499 65.667 C 260.570 65.667,260.672 65.798,260.726 65.958 C 260.824 66.252,261.107 66.724,261.417 67.111 C 261.508 67.226,261.846 67.671,262.167 68.100 C 262.802 68.950,265.402 71.667,265.580 71.667 C 265.641 71.667,265.795 71.760,265.923 71.875 C 266.474 72.370,266.663 72.500,266.826 72.500 C 266.922 72.500,267.000 72.574,267.000 72.663 C 267.000 72.753,267.188 72.874,267.417 72.932 C 267.646 72.989,267.833 73.103,267.833 73.185 C 267.833 73.266,267.946 73.333,268.083 73.333 C 268.221 73.333,268.333 73.408,268.333 73.500 C 268.333 73.592,268.466 73.667,268.628 73.667 C 268.790 73.667,269.184 73.844,269.503 74.061 C 269.822 74.278,270.326 74.509,270.623 74.574 C 270.920 74.639,271.206 74.762,271.258 74.846 C 271.310 74.931,271.499 75.000,271.677 75.000 C 271.854 75.000,272.000 75.070,272.000 75.155 C 272.000 75.240,272.412 75.361,272.917 75.424 C 273.421 75.487,273.833 75.605,273.833 75.686 C 273.833 75.767,274.054 75.833,274.323 75.833 C 274.593 75.833,274.857 75.903,274.909 75.988 C 274.961 76.073,275.678 76.195,276.502 76.259 C 277.326 76.324,278.000 76.435,278.000 76.507 C 278.000 76.935,288.212 76.931,288.750 76.503 C 288.842 76.430,289.685 76.316,290.625 76.250 C 291.565 76.185,292.333 76.064,292.333 75.982 C 292.333 75.900,292.671 75.833,293.083 75.833 C 293.496 75.833,293.833 75.768,293.833 75.688 C 293.833 75.608,294.357 75.492,294.996 75.428 C 295.636 75.365,296.203 75.243,296.256 75.157 C 296.309 75.071,296.574 75.000,296.843 75.000 C 297.113 75.000,297.333 74.935,297.333 74.855 C 297.333 74.775,297.636 74.661,298.005 74.602 C 298.539 74.517,298.711 74.401,298.842 74.039 C 298.933 73.788,299.074 73.433,299.156 73.250 C 299.238 73.067,299.433 72.504,299.589 72.000 C 299.746 71.496,299.938 70.955,300.017 70.799 C 300.096 70.643,300.209 70.211,300.268 69.841 C 300.327 69.470,300.441 69.167,300.521 69.167 C 300.601 69.167,300.667 68.979,300.667 68.750 C 300.667 68.521,300.735 68.333,300.818 68.333 C 300.901 68.333,301.020 67.958,301.083 67.500 C 301.146 67.042,301.266 66.667,301.349 66.667 C 301.432 66.667,301.500 66.484,301.500 66.260 C 301.500 66.036,301.571 65.809,301.657 65.756 C 301.743 65.703,301.864 65.323,301.926 64.913 C 301.987 64.502,302.104 64.167,302.186 64.167 C 302.267 64.167,302.333 63.932,302.333 63.645 L 302.333 63.124 301.458 63.239 C 300.977 63.302,300.558 63.424,300.528 63.510 C 300.497 63.596,300.291 63.667,300.069 63.667 C 299.848 63.667,299.667 63.736,299.667 63.821 C 299.667 63.906,299.253 64.028,298.748 64.091 C 298.242 64.154,297.788 64.272,297.738 64.353 C 297.688 64.434,297.426 64.500,297.157 64.500 C 296.887 64.500,296.667 64.569,296.667 64.653 C 296.667 64.738,296.178 64.859,295.581 64.923 C 294.984 64.987,294.454 65.105,294.405 65.186 C 294.355 65.267,294.024 65.333,293.671 65.333 C 293.317 65.333,293.003 65.402,292.972 65.487 C 292.900 65.685,289.983 66.009,287.375 66.108 C 286.252 66.151,285.333 66.256,285.333 66.343 C 285.333 66.429,285.183 66.500,285.000 66.500 C 284.817 66.500,284.667 66.425,284.667 66.333 C 284.667 66.235,284.083 66.167,283.250 66.167 C 282.471 66.167,281.833 66.100,281.833 66.020 C 281.833 65.939,281.271 65.820,280.583 65.755 C 279.896 65.691,279.333 65.570,279.333 65.486 C 279.333 65.402,279.146 65.333,278.917 65.333 C 278.688 65.333,278.500 65.259,278.500 65.169 C 278.500 65.078,278.200 64.956,277.833 64.897 C 277.467 64.839,277.167 64.725,277.167 64.645 C 277.167 64.565,277.054 64.500,276.917 64.500 C 276.779 64.500,276.667 64.430,276.667 64.345 C 276.667 64.259,276.512 64.140,276.323 64.080 C 275.907 63.948,273.333 61.461,273.333 61.191 C 273.333 61.086,273.260 61.000,273.170 61.000 C 273.080 61.000,272.959 60.813,272.902 60.583 C 272.844 60.354,272.730 60.167,272.649 60.167 C 272.567 60.167,272.500 59.979,272.500 59.750 C 272.500 59.521,272.430 59.333,272.344 59.333 C 272.257 59.333,272.136 58.995,272.074 58.581 C 272.012 58.168,271.895 57.788,271.814 57.738 C 271.733 57.688,271.667 57.389,271.667 57.073 C 271.667 56.758,271.592 56.500,271.500 56.500 C 271.197 56.500,271.290 53.719,271.597 53.601 C 271.742 53.546,280.052 53.500,290.064 53.500 C 309.795 53.500,308.667 53.558,308.667 52.550 C 308.667 52.248,308.733 52.000,308.814 52.000 C 308.895 52.000,309.006 51.531,309.061 50.958 C 309.116 50.385,309.233 49.354,309.320 48.667 C 309.537 46.966,309.529 39.269,309.310 38.333 C 309.214 37.921,309.097 37.227,309.051 36.792 C 309.005 36.356,308.900 36.000,308.817 36.000 C 308.734 36.000,308.667 35.843,308.667 35.650 C 308.667 35.458,308.547 35.027,308.400 34.692 C 308.253 34.357,308.057 33.896,307.964 33.667 C 307.789 33.237,307.718 33.094,307.075 31.886 C 306.735 31.246,306.309 30.615,305.835 30.049 C 305.742 29.938,305.667 29.804,305.667 29.750 C 305.667 29.640,305.359 29.252,305.034 28.950 C 304.915 28.840,304.727 28.654,304.617 28.536 C 304.362 28.263,304.070 27.971,303.797 27.716 C 303.680 27.606,303.493 27.419,303.383 27.300 C 303.081 26.974,302.693 26.667,302.583 26.667 C 302.529 26.667,302.283 26.479,302.036 26.250 C 301.789 26.021,301.500 25.833,301.395 25.833 C 301.289 25.833,301.159 25.721,301.106 25.583 C 301.054 25.446,300.858 25.333,300.672 25.333 C 300.486 25.333,300.333 25.258,300.333 25.167 C 300.333 25.075,300.221 25.000,300.083 25.000 C 299.946 25.000,299.833 24.925,299.833 24.833 C 299.833 24.742,299.759 24.667,299.668 24.667 C 299.402 24.667,298.167 24.099,298.167 23.976 C 298.167 23.915,297.792 23.813,297.333 23.750 C 296.875 23.687,296.500 23.567,296.500 23.484 C 296.500 23.401,296.365 23.333,296.200 23.333 C 296.035 23.333,295.827 23.260,295.738 23.171 C 295.649 23.082,295.034 22.959,294.371 22.897 C 293.709 22.836,293.167 22.727,293.167 22.656 C 293.167 22.358,285.756 22.048,285.333 22.329 M192.375 22.463 C 191.069 22.488,190.000 22.571,190.000 22.646 C 190.000 22.721,189.197 22.832,188.216 22.892 C 187.235 22.952,186.358 23.076,186.266 23.167 C 186.175 23.259,185.778 23.333,185.383 23.333 C 184.989 23.333,184.667 23.398,184.667 23.477 C 184.667 23.556,184.279 23.666,183.804 23.722 C 183.330 23.779,182.865 23.901,182.771 23.996 C 182.677 24.090,182.428 24.167,182.217 24.167 C 182.006 24.167,181.833 24.232,181.833 24.311 C 181.833 24.391,181.516 24.499,181.129 24.551 C 180.741 24.603,180.397 24.725,180.365 24.823 C 180.332 24.920,180.124 25.000,179.903 25.000 C 179.681 25.000,179.500 25.067,179.500 25.148 C 179.500 25.230,179.237 25.345,178.917 25.406 C 178.596 25.466,178.333 25.587,178.333 25.674 C 178.333 25.762,178.221 25.833,178.083 25.833 C 177.946 25.833,177.833 25.908,177.833 26.000 C 177.833 26.092,177.718 26.167,177.577 26.167 C 177.336 26.167,176.515 26.617,176.333 26.849 C 176.287 26.907,176.081 27.008,175.875 27.072 C 175.669 27.136,175.500 27.259,175.500 27.345 C 175.500 27.430,175.422 27.500,175.326 27.500 C 175.230 27.500,174.950 27.688,174.703 27.917 C 174.456 28.146,174.202 28.333,174.139 28.333 C 173.763 28.333,168.885 33.284,168.684 33.869 C 168.648 33.974,168.442 34.224,168.226 34.424 C 168.010 34.624,167.833 34.873,167.833 34.977 C 167.833 35.082,167.763 35.167,167.678 35.167 C 167.592 35.167,167.471 35.330,167.408 35.529 C 167.344 35.728,167.149 36.045,166.973 36.234 C 166.797 36.422,166.608 36.758,166.553 36.979 C 166.497 37.200,166.315 37.519,166.147 37.687 C 165.979 37.854,165.794 38.181,165.736 38.412 C 165.678 38.644,165.564 38.833,165.482 38.833 C 165.400 38.833,165.333 38.947,165.333 39.086 C 165.333 39.224,165.261 39.468,165.173 39.627 C 164.732 40.422,164.159 41.909,164.064 42.501 C 164.005 42.867,163.892 43.167,163.812 43.167 C 163.732 43.167,163.667 43.350,163.667 43.573 C 163.667 43.797,163.596 44.024,163.510 44.077 C 163.423 44.131,163.301 44.698,163.238 45.337 C 163.175 45.977,163.058 46.500,162.978 46.500 C 162.899 46.500,162.833 46.880,162.833 47.344 C 162.833 47.809,162.752 48.340,162.653 48.526 C 162.399 48.999,162.394 56.460,162.646 56.713 C 162.749 56.816,162.833 57.222,162.833 57.617 C 162.833 58.011,162.893 58.333,162.966 58.333 C 163.039 58.333,163.189 58.840,163.301 59.458 C 163.613 61.189,163.694 61.500,163.834 61.500 C 163.906 61.500,164.014 61.706,164.075 61.958 C 164.227 62.590,164.559 63.333,164.689 63.333 C 164.748 63.333,164.845 63.596,164.906 63.917 C 164.966 64.237,165.087 64.500,165.174 64.500 C 165.262 64.500,165.333 64.612,165.333 64.750 C 165.333 64.887,165.407 65.000,165.497 65.000 C 165.587 65.000,165.707 65.188,165.765 65.417 C 165.822 65.646,165.936 65.833,166.018 65.833 C 166.100 65.833,166.167 65.914,166.167 66.012 C 166.167 66.110,166.260 66.295,166.375 66.423 C 166.828 66.928,167.000 67.157,167.000 67.255 C 167.000 67.311,167.094 67.451,167.208 67.566 C 167.323 67.681,167.604 68.021,167.833 68.323 C 168.389 69.054,170.503 71.167,170.679 71.167 C 170.755 71.167,170.991 71.339,171.201 71.550 C 171.412 71.760,171.715 71.983,171.875 72.044 C 172.036 72.106,172.167 72.234,172.167 72.328 C 172.167 72.423,172.317 72.500,172.500 72.500 C 172.683 72.500,172.833 72.574,172.833 72.663 C 172.833 72.753,173.021 72.874,173.250 72.932 C 173.479 72.989,173.667 73.103,173.667 73.185 C 173.667 73.266,173.747 73.333,173.845 73.333 C 173.943 73.333,174.136 73.446,174.274 73.583 C 174.411 73.721,174.706 73.833,174.929 73.833 C 175.151 73.833,175.333 73.908,175.333 74.000 C 175.333 74.092,175.446 74.167,175.583 74.167 C 175.721 74.167,175.833 74.235,175.833 74.319 C 175.833 74.402,176.133 74.521,176.500 74.583 C 176.867 74.645,177.167 74.764,177.167 74.848 C 177.167 74.932,177.339 75.000,177.550 75.000 C 177.761 75.000,178.010 75.077,178.104 75.171 C 178.199 75.265,178.664 75.388,179.138 75.444 C 179.612 75.500,180.000 75.611,180.000 75.690 C 180.000 75.769,180.285 75.833,180.633 75.833 C 180.982 75.833,181.343 75.909,181.435 76.002 C 181.528 76.095,182.443 76.219,183.469 76.278 C 184.494 76.336,185.333 76.448,185.333 76.525 C 185.333 76.710,192.287 76.710,192.401 76.525 C 192.449 76.448,193.672 76.332,195.119 76.268 C 196.566 76.204,197.775 76.080,197.806 75.992 C 197.836 75.905,198.305 75.833,198.847 75.833 C 199.394 75.833,199.833 75.759,199.833 75.667 C 199.833 75.575,200.137 75.500,200.508 75.500 C 201.307 75.500,202.000 74.923,202.000 74.258 C 202.000 74.024,202.075 73.833,202.167 73.833 C 202.258 73.833,202.333 73.646,202.333 73.417 C 202.333 73.188,202.401 73.000,202.484 73.000 C 202.567 73.000,202.687 72.625,202.750 72.167 C 202.813 71.708,202.933 71.333,203.016 71.333 C 203.099 71.333,203.167 71.146,203.167 70.917 C 203.167 70.688,203.233 70.500,203.315 70.500 C 203.396 70.500,203.514 70.228,203.576 69.896 C 203.638 69.564,203.759 69.152,203.845 68.979 C 203.930 68.807,204.074 68.520,204.164 68.341 C 204.253 68.161,204.376 67.711,204.435 67.341 C 204.494 66.970,204.608 66.667,204.688 66.667 C 204.768 66.667,204.833 66.485,204.833 66.264 C 204.833 66.042,204.908 65.836,204.998 65.806 C 205.089 65.775,205.212 65.281,205.272 64.708 L 205.381 63.667 204.857 63.667 C 204.569 63.667,204.333 63.734,204.333 63.817 C 204.333 63.900,203.883 64.019,203.333 64.083 C 202.783 64.147,202.333 64.267,202.333 64.350 C 202.333 64.432,202.113 64.500,201.843 64.500 C 201.574 64.500,201.312 64.567,201.261 64.649 C 201.210 64.731,200.568 64.852,199.833 64.917 C 199.099 64.982,198.457 65.102,198.406 65.184 C 198.355 65.266,197.868 65.333,197.323 65.333 C 196.774 65.333,196.333 65.408,196.333 65.500 C 196.333 65.604,195.333 65.667,193.667 65.667 C 192.000 65.667,191.000 65.604,191.000 65.500 C 191.000 65.408,190.625 65.333,190.167 65.333 C 189.708 65.333,189.333 65.269,189.333 65.190 C 189.333 65.111,188.964 65.003,188.513 64.949 C 188.061 64.896,187.555 64.779,187.388 64.690 C 186.808 64.382,185.866 64.000,185.683 64.000 C 185.582 64.000,185.500 63.925,185.500 63.833 C 185.500 63.742,185.387 63.667,185.250 63.667 C 185.112 63.667,185.000 63.593,185.000 63.503 C 185.000 63.413,184.813 63.293,184.583 63.235 C 184.354 63.178,184.167 63.069,184.167 62.993 C 184.167 62.918,184.022 62.810,183.845 62.754 C 183.449 62.628,180.500 59.776,180.500 59.519 C 180.500 59.417,180.426 59.333,180.337 59.333 C 180.247 59.333,180.126 59.146,180.068 58.917 C 180.011 58.688,179.897 58.500,179.815 58.500 C 179.734 58.500,179.667 58.397,179.667 58.270 C 179.667 58.144,179.554 57.947,179.417 57.833 C 179.279 57.719,179.167 57.448,179.167 57.230 C 179.167 57.012,179.098 56.833,179.015 56.833 C 178.931 56.833,178.812 56.534,178.750 56.168 C 178.688 55.801,178.569 55.459,178.485 55.408 C 178.402 55.356,178.333 55.071,178.333 54.773 C 178.333 54.476,178.240 54.139,178.125 54.025 C 177.857 53.757,177.847 47.534,178.113 47.362 C 178.209 47.300,178.329 47.025,178.380 46.750 C 178.535 45.915,178.829 44.839,178.985 44.536 C 179.066 44.379,179.269 43.913,179.437 43.500 C 179.604 43.087,179.789 42.712,179.848 42.667 C 179.907 42.621,180.008 42.415,180.072 42.208 C 180.136 42.002,180.259 41.833,180.345 41.833 C 180.430 41.833,180.500 41.721,180.500 41.583 C 180.500 41.446,180.575 41.333,180.667 41.333 C 180.758 41.333,180.833 41.210,180.833 41.060 C 180.833 40.909,181.040 40.581,181.292 40.329 C 181.544 40.078,181.915 39.654,182.116 39.388 C 182.604 38.742,183.653 37.667,183.800 37.664 C 183.864 37.663,184.171 37.438,184.481 37.164 C 184.791 36.890,185.096 36.667,185.158 36.667 C 185.220 36.667,185.420 36.535,185.603 36.375 C 186.039 35.992,186.455 35.735,187.167 35.408 C 187.487 35.261,188.125 34.965,188.583 34.751 C 189.509 34.319,190.574 34.009,191.583 33.879 C 191.950 33.831,192.304 33.708,192.369 33.605 C 192.547 33.323,200.532 33.345,200.626 33.627 C 200.667 33.750,200.993 33.833,201.431 33.833 C 201.835 33.833,202.167 33.902,202.167 33.987 C 202.167 34.071,202.654 34.192,203.250 34.256 C 203.846 34.320,204.333 34.438,204.333 34.519 C 204.333 34.600,204.521 34.667,204.750 34.667 C 204.979 34.667,205.167 34.735,205.167 34.818 C 205.167 34.901,205.542 35.020,206.000 35.083 C 206.458 35.146,206.833 35.266,206.833 35.349 C 206.833 35.432,206.979 35.500,207.157 35.500 C 207.335 35.500,207.527 35.575,207.583 35.667 C 207.833 36.071,208.667 35.361,208.667 34.744 C 208.667 34.518,208.742 34.333,208.833 34.333 C 208.925 34.333,209.000 34.212,209.000 34.064 C 209.000 33.789,209.449 32.289,209.669 31.828 C 209.736 31.687,209.842 31.312,209.905 30.995 C 210.014 30.442,210.205 29.914,210.516 29.299 C 210.596 29.143,210.709 28.711,210.768 28.341 C 210.827 27.970,210.941 27.667,211.021 27.667 C 211.101 27.667,211.167 27.479,211.167 27.250 C 211.167 27.021,211.242 26.833,211.333 26.833 C 211.425 26.833,211.500 26.515,211.500 26.125 C 211.500 25.363,210.665 24.788,209.204 24.546 C 208.904 24.496,208.618 24.390,208.569 24.311 C 208.520 24.232,208.302 24.167,208.083 24.167 C 207.865 24.167,207.644 24.098,207.591 24.013 C 207.539 23.929,207.010 23.807,206.415 23.744 C 205.820 23.680,205.333 23.562,205.333 23.481 C 205.333 23.400,205.048 23.333,204.700 23.333 C 204.352 23.333,203.995 23.263,203.908 23.176 C 203.821 23.090,202.963 22.968,202.000 22.904 C 201.037 22.841,200.174 22.730,200.081 22.657 C 199.883 22.502,195.746 22.397,192.375 22.463 M129.500 22.641 C 129.500 22.719,128.470 22.834,127.210 22.898 C 125.951 22.961,124.849 23.085,124.760 23.173 C 124.672 23.261,124.202 23.333,123.717 23.333 C 123.231 23.333,122.833 23.400,122.833 23.482 C 122.833 23.564,122.158 23.685,121.333 23.750 C 120.508 23.815,119.833 23.936,119.833 24.018 C 119.833 24.100,119.533 24.167,119.167 24.167 C 118.468 24.167,117.833 24.603,117.833 25.083 C 117.833 25.221,117.765 25.333,117.682 25.333 C 117.599 25.333,117.480 25.708,117.417 26.167 C 117.354 26.625,117.234 27.000,117.151 27.000 C 117.068 27.000,117.000 27.188,117.000 27.417 C 117.000 27.646,116.932 27.833,116.849 27.833 C 116.766 27.833,116.646 28.208,116.583 28.667 C 116.520 29.125,116.401 29.500,116.318 29.500 C 116.235 29.500,116.167 29.688,116.167 29.917 C 116.167 30.146,116.101 30.333,116.021 30.333 C 115.941 30.333,115.827 30.637,115.768 31.007 C 115.709 31.378,115.575 31.847,115.471 32.049 C 115.108 32.752,115.042 32.931,114.928 33.505 C 114.819 34.059,114.629 34.586,114.317 35.202 C 113.979 35.868,114.954 36.212,115.575 35.645 C 115.662 35.565,115.901 35.500,116.107 35.500 C 116.312 35.500,116.522 35.432,116.574 35.349 C 116.625 35.266,117.042 35.146,117.500 35.083 C 117.958 35.020,118.333 34.901,118.333 34.818 C 118.333 34.735,118.596 34.667,118.917 34.667 C 119.237 34.667,119.500 34.598,119.500 34.513 C 119.500 34.429,119.987 34.308,120.583 34.244 C 121.179 34.180,121.667 34.062,121.667 33.981 C 121.667 33.900,121.929 33.833,122.250 33.833 C 122.571 33.833,122.833 33.766,122.833 33.684 C 122.833 33.602,123.508 33.482,124.333 33.417 C 125.158 33.351,125.833 33.231,125.833 33.149 C 125.833 33.067,126.193 33.000,126.633 33.000 C 127.073 33.000,127.527 32.906,127.642 32.792 C 127.798 32.635,128.993 32.583,132.453 32.583 C 135.987 32.583,137.071 32.632,137.125 32.792 C 137.163 32.906,137.409 33.000,137.671 33.000 C 137.933 33.000,138.190 33.069,138.242 33.154 C 138.294 33.238,138.561 33.357,138.835 33.417 C 139.109 33.477,139.333 33.596,139.333 33.680 C 139.333 33.764,139.483 33.833,139.667 33.833 C 139.850 33.833,140.000 33.900,140.000 33.982 C 140.000 34.064,140.188 34.178,140.417 34.235 C 140.646 34.293,140.833 34.413,140.833 34.503 C 140.833 34.593,140.911 34.667,141.007 34.667 C 141.244 34.667,142.469 35.973,142.591 36.356 C 142.645 36.527,142.754 36.667,142.832 36.667 C 143.002 36.667,143.500 37.619,143.500 37.942 C 143.500 38.066,143.570 38.167,143.656 38.167 C 143.743 38.167,143.859 38.523,143.915 38.958 C 143.971 39.394,144.088 39.880,144.175 40.039 C 144.429 40.504,144.370 42.262,144.093 42.492 C 143.924 42.633,143.400 42.660,142.302 42.584 C 139.779 42.411,130.874 42.452,129.250 42.644 C 128.425 42.742,126.944 42.912,125.958 43.021 C 124.973 43.130,124.167 43.282,124.167 43.360 C 124.167 43.437,123.867 43.500,123.500 43.500 C 123.133 43.500,122.833 43.566,122.833 43.647 C 122.833 43.729,122.409 43.848,121.890 43.913 C 121.371 43.978,120.808 44.099,120.640 44.182 C 120.471 44.265,120.187 44.407,120.007 44.497 C 119.828 44.587,119.378 44.709,119.007 44.768 C 118.637 44.827,118.333 44.941,118.333 45.021 C 118.333 45.101,118.146 45.167,117.917 45.167 C 117.688 45.167,117.500 45.236,117.500 45.320 C 117.500 45.404,117.275 45.523,117.000 45.583 C 116.725 45.644,116.500 45.762,116.500 45.847 C 116.500 45.931,116.350 46.000,116.167 46.000 C 115.983 46.000,115.833 46.067,115.833 46.149 C 115.833 46.230,115.632 46.348,115.385 46.410 C 115.138 46.472,114.819 46.657,114.677 46.821 C 114.534 46.985,114.248 47.172,114.042 47.237 C 113.835 47.303,113.667 47.426,113.667 47.511 C 113.667 47.597,113.554 47.667,113.417 47.667 C 113.279 47.667,113.167 47.737,113.167 47.822 C 113.167 47.908,113.014 48.026,112.827 48.085 C 112.248 48.269,109.739 50.879,109.386 51.667 C 109.324 51.804,109.137 52.038,108.970 52.186 C 108.804 52.334,108.620 52.690,108.563 52.978 C 108.505 53.265,108.393 53.500,108.313 53.500 C 108.232 53.500,108.167 53.612,108.167 53.750 C 108.167 53.887,108.092 54.000,108.000 54.000 C 107.908 54.000,107.833 54.169,107.832 54.375 C 107.832 54.581,107.719 54.965,107.582 55.227 C 107.445 55.490,107.333 55.877,107.333 56.088 C 107.333 56.300,107.240 56.503,107.125 56.542 C 106.967 56.594,106.917 57.480,106.917 60.214 C 106.917 62.874,106.971 63.871,107.125 64.025 C 107.240 64.140,107.333 64.406,107.333 64.617 C 107.333 64.827,107.400 65.000,107.481 65.000 C 107.562 65.000,107.679 65.337,107.741 65.750 C 107.803 66.162,107.924 66.500,108.010 66.500 C 108.096 66.500,108.167 66.644,108.167 66.819 C 108.167 66.995,108.223 67.164,108.292 67.194 C 108.360 67.225,108.566 67.550,108.750 67.917 C 108.933 68.283,109.176 68.682,109.291 68.804 C 109.406 68.925,109.500 69.126,109.500 69.251 C 109.500 69.375,109.646 69.524,109.825 69.581 C 110.003 69.637,110.196 69.830,110.253 70.009 C 110.309 70.187,110.426 70.333,110.511 70.333 C 110.597 70.333,110.667 70.407,110.667 70.498 C 110.667 70.709,111.198 71.333,111.377 71.333 C 111.452 71.333,111.816 71.633,112.186 72.000 C 112.557 72.367,112.915 72.667,112.982 72.667 C 113.049 72.667,113.249 72.800,113.427 72.964 C 113.605 73.127,114.050 73.401,114.417 73.572 C 114.783 73.743,115.121 73.928,115.167 73.983 C 115.333 74.183,115.939 74.460,116.464 74.575 C 116.759 74.640,117.000 74.754,117.000 74.828 C 117.000 74.902,117.206 75.005,117.458 75.057 C 119.457 75.472,119.833 75.573,119.833 75.695 C 119.833 75.771,120.127 75.833,120.486 75.833 C 120.845 75.833,121.164 75.909,121.195 76.002 C 121.226 76.094,122.097 76.218,123.132 76.277 C 124.166 76.337,125.051 76.448,125.099 76.526 C 125.214 76.711,135.667 76.709,135.667 76.524 C 135.667 76.445,136.585 76.327,137.708 76.262 C 138.831 76.197,139.775 76.074,139.806 75.989 C 139.836 75.903,140.192 75.833,140.597 75.833 C 141.002 75.833,141.333 75.768,141.333 75.688 C 141.333 75.608,141.933 75.491,142.667 75.427 C 143.400 75.363,144.000 75.241,144.000 75.155 C 144.000 75.070,144.262 75.000,144.583 75.000 C 144.904 75.000,145.167 74.930,145.167 74.845 C 145.167 74.760,145.579 74.639,146.083 74.576 C 146.587 74.513,147.000 74.395,147.000 74.314 C 147.000 74.233,147.146 74.167,147.323 74.167 C 147.501 74.167,147.691 74.096,147.744 74.010 C 147.797 73.923,148.177 73.802,148.587 73.741 C 148.998 73.679,149.333 73.562,149.333 73.481 C 149.333 73.400,149.479 73.333,149.657 73.333 C 149.835 73.333,150.023 73.264,150.075 73.179 C 150.128 73.095,150.395 72.976,150.669 72.916 C 150.943 72.856,151.167 72.738,151.167 72.653 C 151.167 72.569,151.317 72.500,151.500 72.500 C 151.683 72.500,151.833 72.433,151.833 72.351 C 151.833 72.270,152.024 72.155,152.257 72.097 C 152.832 71.952,153.667 71.126,153.667 70.700 C 153.667 70.509,153.742 70.307,153.833 70.250 C 153.925 70.193,154.000 69.743,154.000 69.250 C 154.000 68.757,154.067 68.312,154.148 68.261 C 154.230 68.211,154.351 67.344,154.417 66.335 C 154.482 65.326,154.603 64.500,154.685 64.500 C 154.767 64.500,154.833 64.092,154.833 63.593 C 154.833 63.094,154.901 62.644,154.984 62.593 C 155.067 62.542,155.188 61.713,155.254 60.750 C 155.319 59.788,155.439 59.000,155.520 59.000 C 155.601 59.000,155.667 58.592,155.667 58.093 C 155.667 57.594,155.734 57.144,155.817 57.093 C 155.900 57.042,156.022 56.213,156.087 55.250 C 156.153 54.288,156.273 53.500,156.353 53.500 C 156.434 53.500,156.500 53.092,156.500 52.593 C 156.500 52.094,156.569 51.644,156.653 51.592 C 156.737 51.540,156.859 50.673,156.924 49.665 C 156.989 48.658,157.102 47.833,157.174 47.833 C 157.500 47.833,157.821 38.088,157.506 37.773 C 157.411 37.678,157.333 37.315,157.333 36.967 C 157.333 36.618,157.269 36.333,157.190 36.333 C 157.111 36.333,157.000 35.945,156.944 35.471 C 156.888 34.997,156.765 34.532,156.671 34.438 C 156.577 34.344,156.500 34.094,156.500 33.883 C 156.500 33.672,156.431 33.500,156.347 33.500 C 156.262 33.500,156.144 33.276,156.084 33.002 C 156.024 32.728,155.905 32.461,155.821 32.409 C 155.736 32.356,155.667 32.168,155.667 31.990 C 155.667 31.812,155.597 31.667,155.511 31.667 C 155.426 31.667,155.303 31.498,155.237 31.292 C 155.172 31.085,154.990 30.804,154.833 30.667 C 154.676 30.529,154.496 30.252,154.432 30.050 C 154.368 29.849,154.187 29.643,154.030 29.593 C 153.872 29.543,153.606 29.247,153.438 28.935 C 153.270 28.623,152.877 28.230,152.565 28.062 C 152.253 27.894,151.957 27.628,151.907 27.470 C 151.857 27.313,151.670 27.137,151.491 27.081 C 151.313 27.024,151.167 26.908,151.167 26.822 C 151.167 26.737,151.054 26.667,150.917 26.667 C 150.779 26.667,150.667 26.609,150.667 26.538 C 150.667 26.467,150.404 26.268,150.083 26.095 C 149.762 25.922,149.500 25.724,149.500 25.654 C 149.500 25.584,149.275 25.477,149.000 25.417 C 148.725 25.356,148.500 25.255,148.500 25.193 C 148.500 25.069,147.268 24.500,146.999 24.500 C 146.908 24.500,146.833 24.425,146.833 24.333 C 146.833 24.242,146.650 24.167,146.427 24.167 C 146.203 24.167,145.976 24.096,145.923 24.010 C 145.869 23.923,145.490 23.802,145.079 23.741 C 144.669 23.679,144.333 23.562,144.333 23.481 C 144.333 23.400,144.086 23.333,143.783 23.333 C 143.481 23.333,143.159 23.259,143.067 23.167 C 142.976 23.076,142.211 22.952,141.367 22.892 C 140.524 22.832,139.833 22.720,139.833 22.642 C 139.833 22.564,137.508 22.500,134.667 22.500 C 131.825 22.500,129.500 22.564,129.500 22.641 M238.000 22.667 C 238.000 22.760,237.506 22.839,236.875 22.846 C 236.256 22.852,235.338 22.931,234.833 23.021 C 234.329 23.110,233.617 23.226,233.250 23.277 C 232.883 23.329,232.508 23.429,232.417 23.500 C 232.325 23.571,231.856 23.682,231.375 23.747 C 230.894 23.812,230.458 23.933,230.407 24.016 C 230.356 24.099,230.131 24.167,229.907 24.167 C 229.683 24.167,229.500 24.233,229.500 24.314 C 229.500 24.396,229.162 24.513,228.750 24.575 C 228.338 24.636,228.000 24.739,228.000 24.803 C 228.000 24.940,227.273 25.269,226.625 25.425 C 226.373 25.486,226.167 25.603,226.167 25.685 C 226.167 25.766,226.017 25.833,225.833 25.833 C 225.650 25.833,225.500 25.907,225.500 25.997 C 225.500 26.087,225.313 26.207,225.083 26.265 C 224.854 26.322,224.667 26.436,224.667 26.518 C 224.667 26.600,224.554 26.667,224.417 26.667 C 224.279 26.667,224.167 26.740,224.167 26.830 C 224.167 26.920,223.979 27.041,223.750 27.098 C 223.521 27.156,223.333 27.270,223.333 27.351 C 223.333 27.433,223.250 27.500,223.147 27.500 C 223.045 27.500,222.661 27.800,222.294 28.167 C 221.927 28.533,221.556 28.833,221.469 28.833 C 221.382 28.833,221.063 29.096,220.761 29.417 C 220.458 29.738,220.144 30.000,220.064 30.001 C 219.983 30.001,219.654 30.312,219.333 30.691 C 219.012 31.070,218.244 31.897,217.625 32.529 C 217.006 33.161,216.500 33.759,216.500 33.857 C 216.500 33.955,216.313 34.183,216.083 34.363 C 215.854 34.543,215.667 34.764,215.667 34.853 C 215.667 34.942,215.479 35.203,215.250 35.432 C 215.021 35.661,214.833 35.958,214.833 36.091 C 214.833 36.224,214.758 36.333,214.667 36.333 C 214.575 36.333,214.500 36.446,214.500 36.583 C 214.500 36.721,214.425 36.833,214.333 36.833 C 214.242 36.833,214.167 36.974,214.167 37.146 C 214.167 37.318,214.054 37.553,213.917 37.667 C 213.779 37.781,213.667 37.977,213.667 38.104 C 213.667 38.230,213.598 38.333,213.513 38.333 C 213.429 38.333,213.310 38.558,213.250 38.833 C 213.190 39.108,213.071 39.333,212.987 39.333 C 212.902 39.333,212.833 39.479,212.833 39.657 C 212.833 39.835,212.758 40.027,212.667 40.083 C 212.575 40.140,212.500 40.302,212.500 40.443 C 212.500 40.682,212.168 41.545,211.822 42.201 C 211.740 42.357,211.624 42.807,211.564 43.201 C 211.504 43.595,211.399 43.992,211.332 44.083 C 211.264 44.175,211.168 44.475,211.118 44.750 C 211.068 45.025,210.948 45.550,210.851 45.917 C 210.754 46.283,210.673 47.015,210.671 47.542 C 210.668 48.069,210.592 48.500,210.500 48.500 C 210.393 48.500,210.333 50.000,210.333 52.667 C 210.333 54.958,210.397 56.833,210.476 56.833 C 210.554 56.833,210.663 57.370,210.718 58.026 C 210.773 58.682,210.897 59.297,210.992 59.392 C 211.088 59.488,211.167 59.814,211.167 60.117 C 211.167 60.419,211.242 60.667,211.333 60.667 C 211.425 60.667,211.500 60.798,211.499 60.958 C 211.498 61.379,212.041 62.833,212.200 62.833 C 212.273 62.833,212.333 62.966,212.333 63.128 C 212.333 63.289,212.483 63.683,212.666 64.003 C 212.848 64.322,213.149 64.883,213.333 65.250 C 214.154 66.881,217.767 70.964,218.632 71.239 C 218.825 71.300,219.029 71.497,219.086 71.675 C 219.143 71.854,219.336 72.000,219.516 72.000 C 219.696 72.000,219.881 72.098,219.927 72.218 C 219.973 72.337,220.440 72.656,220.964 72.925 C 221.488 73.194,221.955 73.466,222.002 73.528 C 222.048 73.590,222.292 73.692,222.543 73.755 C 222.795 73.818,223.000 73.936,223.000 74.018 C 223.000 74.100,223.150 74.167,223.333 74.167 C 223.517 74.167,223.667 74.241,223.667 74.331 C 223.667 74.422,223.967 74.544,224.333 74.603 C 224.700 74.661,225.000 74.775,225.000 74.855 C 225.000 74.935,225.188 75.000,225.417 75.000 C 225.646 75.000,225.833 75.071,225.833 75.158 C 225.833 75.246,226.283 75.368,226.833 75.430 C 227.383 75.492,227.833 75.600,227.833 75.670 C 227.833 75.740,228.077 75.839,228.375 75.891 C 228.673 75.944,229.329 76.059,229.833 76.148 C 230.338 76.236,231.289 76.314,231.948 76.321 C 232.608 76.328,233.193 76.408,233.250 76.500 C 233.376 76.705,239.000 76.729,239.000 76.526 C 239.000 76.448,240.556 76.331,242.458 76.267 C 244.360 76.202,245.988 76.078,246.075 75.991 C 246.162 75.904,246.556 75.833,246.950 75.833 C 247.344 75.833,247.667 75.758,247.667 75.667 C 247.667 75.575,247.845 75.500,248.063 75.500 C 248.281 75.500,248.553 75.388,248.667 75.250 C 248.781 75.112,248.960 75.000,249.066 75.000 C 249.171 75.000,249.399 74.737,249.572 74.417 C 249.744 74.096,249.942 73.833,250.011 73.833 C 250.079 73.833,250.187 73.458,250.250 73.000 C 250.313 72.542,250.433 72.167,250.516 72.167 C 250.599 72.167,250.667 71.979,250.667 71.750 C 250.667 71.521,250.735 71.333,250.818 71.333 C 250.901 71.333,251.020 70.958,251.083 70.500 C 251.146 70.042,251.266 69.667,251.349 69.667 C 251.432 69.667,251.500 69.479,251.500 69.250 C 251.500 69.021,251.566 68.833,251.648 68.833 C 251.729 68.833,251.846 68.496,251.908 68.083 C 251.970 67.671,252.091 67.333,252.177 67.333 C 252.263 67.333,252.333 67.188,252.333 67.010 C 252.333 66.832,252.402 66.644,252.485 66.592 C 252.569 66.541,252.691 66.180,252.756 65.791 C 252.821 65.402,252.932 65.046,253.004 65.000 C 253.075 64.954,253.160 64.654,253.192 64.333 C 253.253 63.717,252.612 63.401,252.115 63.803 C 252.006 63.891,251.523 64.016,251.042 64.080 C 250.560 64.145,250.167 64.266,250.167 64.349 C 250.167 64.432,249.904 64.500,249.583 64.500 C 249.262 64.500,249.000 64.563,249.000 64.640 C 249.000 64.772,247.166 65.075,245.167 65.272 C 244.662 65.322,244.179 65.431,244.092 65.515 C 243.886 65.712,238.500 65.714,238.500 65.517 C 238.500 65.434,238.181 65.327,237.792 65.279 C 236.575 65.127,235.167 64.784,235.167 64.639 C 235.167 64.562,234.979 64.500,234.750 64.500 C 234.521 64.500,234.333 64.425,234.333 64.333 C 234.333 64.242,234.251 64.167,234.150 64.167 C 233.927 64.167,232.783 63.644,232.667 63.489 C 232.621 63.428,232.415 63.326,232.208 63.261 C 232.002 63.197,231.833 63.074,231.833 62.989 C 231.833 62.903,231.754 62.833,231.656 62.833 C 231.459 62.833,230.923 62.357,229.622 61.024 C 228.080 59.445,227.754 59.039,227.559 58.458 C 227.505 58.298,227.411 58.167,227.351 58.167 C 227.290 58.167,227.095 57.792,226.917 57.333 C 226.739 56.875,226.542 56.500,226.479 56.500 C 226.416 56.500,226.313 56.125,226.250 55.667 C 226.187 55.208,226.067 54.833,225.984 54.833 C 225.901 54.833,225.833 54.533,225.833 54.167 C 225.833 53.800,225.758 53.500,225.667 53.500 C 225.564 53.500,225.500 52.642,225.500 51.260 C 225.500 49.946,225.569 48.977,225.667 48.917 C 225.758 48.860,225.833 48.485,225.833 48.083 C 225.833 47.682,225.903 47.310,225.988 47.257 C 226.074 47.205,226.195 46.749,226.258 46.245 C 226.321 45.741,226.439 45.288,226.519 45.238 C 226.600 45.188,226.667 44.964,226.667 44.740 C 226.667 44.516,226.736 44.333,226.820 44.333 C 226.904 44.333,227.026 44.090,227.091 43.792 C 227.156 43.494,227.255 43.212,227.313 43.167 C 227.487 43.027,228.000 42.044,228.000 41.849 C 228.000 41.749,228.150 41.498,228.333 41.292 C 229.043 40.493,229.167 40.328,229.167 40.179 C 229.167 39.989,231.796 37.333,231.984 37.333 C 232.058 37.333,232.307 37.165,232.537 36.958 C 233.335 36.245,233.671 36.000,233.851 36.000 C 234.080 36.000,235.065 35.458,235.139 35.292 C 235.169 35.223,235.271 35.167,235.364 35.167 C 235.527 35.167,236.459 34.790,237.021 34.497 C 237.170 34.420,237.565 34.305,237.898 34.243 C 238.231 34.180,238.545 34.062,238.595 33.981 C 238.645 33.900,239.013 33.833,239.413 33.833 C 239.845 33.833,240.167 33.749,240.208 33.625 C 240.306 33.334,247.909 33.343,248.201 33.634 C 248.311 33.744,248.685 33.833,249.033 33.833 C 249.382 33.833,249.667 33.902,249.667 33.987 C 249.667 34.071,250.154 34.192,250.750 34.256 C 251.346 34.320,251.833 34.438,251.833 34.519 C 251.833 34.600,252.021 34.667,252.250 34.667 C 252.479 34.667,252.667 34.735,252.667 34.818 C 252.667 34.901,253.042 35.020,253.500 35.083 C 253.958 35.146,254.333 35.266,254.333 35.349 C 254.333 35.432,254.484 35.500,254.669 35.500 C 254.854 35.500,255.147 35.589,255.322 35.698 C 255.679 35.921,256.167 35.651,256.167 35.230 C 256.167 35.103,256.242 35.000,256.333 35.000 C 256.425 35.000,256.500 34.817,256.500 34.593 C 256.500 34.369,256.571 34.143,256.657 34.089 C 256.743 34.036,256.864 33.656,256.926 33.246 C 256.987 32.836,257.104 32.500,257.186 32.500 C 257.267 32.500,257.333 32.317,257.333 32.093 C 257.333 31.869,257.404 31.643,257.490 31.589 C 257.577 31.536,257.698 31.156,257.759 30.746 C 257.821 30.336,257.938 30.000,258.019 30.000 C 258.100 30.000,258.167 29.817,258.167 29.593 C 258.167 29.369,258.237 29.143,258.324 29.089 C 258.410 29.036,258.531 28.656,258.593 28.246 C 258.654 27.836,258.771 27.500,258.852 27.500 C 258.934 27.500,259.000 27.349,259.000 27.164 C 259.000 26.980,259.086 26.691,259.191 26.523 C 259.431 26.138,259.243 25.333,258.913 25.333 C 258.778 25.333,258.667 25.258,258.667 25.167 C 258.667 25.075,258.479 25.000,258.250 25.000 C 258.021 25.000,257.833 24.932,257.833 24.849 C 257.833 24.766,257.458 24.646,257.000 24.583 C 256.542 24.520,256.167 24.401,256.167 24.318 C 256.167 24.235,255.979 24.167,255.750 24.167 C 255.521 24.167,255.333 24.099,255.333 24.017 C 255.333 23.935,254.808 23.814,254.166 23.750 C 253.524 23.685,252.957 23.565,252.906 23.483 C 252.855 23.401,252.571 23.333,252.273 23.333 C 251.976 23.333,251.662 23.263,251.575 23.177 C 251.488 23.091,250.571 22.968,249.537 22.903 C 248.503 22.838,247.617 22.721,247.568 22.643 C 247.440 22.435,238.000 22.459,238.000 22.667 M333.096 22.647 C 333.046 22.727,332.292 22.847,331.419 22.912 C 330.547 22.978,329.792 23.099,329.740 23.182 C 329.689 23.265,329.426 23.333,329.157 23.333 C 328.887 23.333,328.667 23.398,328.667 23.477 C 328.667 23.556,328.297 23.664,327.846 23.717 C 327.105 23.805,326.388 24.077,326.167 24.355 C 326.121 24.412,325.765 24.512,325.375 24.578 C 324.985 24.643,324.667 24.764,324.667 24.848 C 324.667 24.932,324.517 25.000,324.333 25.000 C 324.150 25.000,324.000 25.064,324.000 25.142 C 324.000 25.219,323.662 25.422,323.250 25.592 C 322.837 25.762,322.500 25.953,322.500 26.016 C 322.500 26.079,322.306 26.179,322.069 26.239 C 321.832 26.298,321.454 26.531,321.228 26.757 C 321.003 26.982,320.746 27.167,320.658 27.167 C 320.386 27.167,317.697 29.983,317.308 30.677 C 317.105 31.038,316.883 31.333,316.816 31.333 C 316.748 31.333,316.640 31.577,316.576 31.875 C 316.511 32.173,316.411 32.454,316.354 32.500 C 316.112 32.694,315.832 33.365,315.732 33.993 C 315.673 34.363,315.559 34.667,315.479 34.667 C 315.399 34.667,315.333 34.925,315.333 35.240 C 315.333 35.556,315.258 35.860,315.167 35.917 C 315.068 35.978,315.000 37.030,315.000 38.510 C 315.000 40.059,315.063 41.000,315.167 41.000 C 315.258 41.000,315.333 41.262,315.333 41.583 C 315.333 41.904,315.408 42.167,315.500 42.167 C 315.592 42.167,315.667 42.362,315.667 42.600 C 315.667 43.016,316.114 44.161,316.344 44.333 C 316.405 44.379,316.513 44.603,316.585 44.831 C 316.752 45.367,317.502 46.500,317.689 46.500 C 317.768 46.500,317.833 46.578,317.833 46.674 C 317.833 46.861,317.956 47.019,318.800 47.916 C 319.102 48.237,319.402 48.501,319.466 48.503 C 319.531 48.504,319.837 48.729,320.148 49.003 C 320.458 49.276,320.814 49.500,320.939 49.500 C 321.064 49.500,321.167 49.563,321.167 49.640 C 321.167 49.718,321.448 49.924,321.792 50.099 C 322.135 50.274,322.529 50.529,322.667 50.667 C 322.804 50.804,323.198 51.060,323.542 51.235 C 323.885 51.409,324.167 51.610,324.167 51.680 C 324.167 51.750,324.410 51.860,324.708 51.926 C 325.006 51.991,325.344 52.179,325.459 52.343 C 325.573 52.506,325.892 52.690,326.167 52.750 C 326.442 52.810,326.667 52.929,326.667 53.013 C 326.667 53.098,326.779 53.167,326.917 53.167 C 327.054 53.167,327.167 53.242,327.167 53.333 C 327.167 53.425,327.307 53.500,327.480 53.500 C 327.652 53.500,327.886 53.612,328.000 53.750 C 328.114 53.887,328.311 54.000,328.437 54.000 C 328.563 54.000,328.667 54.069,328.667 54.153 C 328.667 54.238,328.892 54.356,329.167 54.417 C 329.442 54.477,329.667 54.596,329.667 54.680 C 329.667 54.764,329.817 54.833,330.000 54.833 C 330.183 54.833,330.333 54.905,330.333 54.992 C 330.333 55.080,330.615 55.283,330.958 55.444 C 331.302 55.605,331.682 55.834,331.804 55.952 C 331.925 56.070,332.090 56.167,332.171 56.167 C 332.251 56.167,332.572 56.429,332.884 56.750 C 333.195 57.071,333.518 57.336,333.600 57.340 C 333.771 57.347,334.667 58.592,334.667 58.822 C 334.667 58.904,334.759 59.003,334.873 59.041 C 335.126 59.125,335.164 61.788,334.914 61.966 C 334.704 62.116,334.352 62.666,334.226 63.042 C 334.172 63.202,334.080 63.333,334.022 63.334 C 333.964 63.334,333.699 63.521,333.432 63.750 C 333.166 63.979,332.847 64.167,332.724 64.167 C 332.601 64.167,332.500 64.224,332.500 64.294 C 332.500 64.468,331.243 65.000,330.832 65.000 C 330.649 65.000,330.500 65.075,330.500 65.167 C 330.500 65.258,330.281 65.333,330.014 65.333 C 329.747 65.333,329.497 65.427,329.458 65.542 C 329.405 65.702,328.263 65.750,324.500 65.750 C 320.737 65.750,319.595 65.702,319.542 65.542 C 319.499 65.413,319.160 65.333,318.653 65.333 C 318.202 65.333,317.833 65.264,317.833 65.179 C 317.833 65.094,317.420 64.972,316.914 64.909 C 316.409 64.846,315.955 64.728,315.905 64.647 C 315.855 64.566,315.631 64.500,315.407 64.500 C 315.183 64.500,315.000 64.435,315.000 64.355 C 315.000 64.275,314.700 64.161,314.333 64.103 C 313.967 64.044,313.667 63.922,313.667 63.831 C 313.667 63.741,313.563 63.667,313.436 63.667 C 313.309 63.667,312.990 63.555,312.727 63.418 C 312.465 63.281,312.119 63.168,311.958 63.168 C 311.798 63.167,311.667 63.092,311.667 63.000 C 311.667 62.908,311.375 62.833,311.018 62.833 C 310.352 62.833,310.167 63.018,310.167 63.680 C 310.167 63.856,310.092 64.000,310.000 64.000 C 309.908 64.000,309.833 64.188,309.833 64.417 C 309.833 64.646,309.765 64.833,309.682 64.833 C 309.599 64.833,309.480 65.208,309.417 65.666 C 309.354 66.125,309.234 66.542,309.151 66.593 C 309.068 66.644,309.000 66.869,309.000 67.093 C 309.000 67.317,308.932 67.500,308.849 67.500 C 308.766 67.500,308.646 67.875,308.583 68.333 C 308.520 68.792,308.401 69.167,308.318 69.167 C 308.235 69.167,308.167 69.350,308.167 69.573 C 308.167 69.797,308.096 70.024,308.010 70.077 C 307.923 70.131,307.802 70.510,307.741 70.921 C 307.679 71.331,307.562 71.667,307.481 71.667 C 307.224 71.667,307.314 73.171,307.588 73.445 C 307.728 73.585,308.142 73.740,308.509 73.789 C 308.875 73.838,309.215 73.943,309.264 74.022 C 309.313 74.102,309.536 74.167,309.760 74.167 C 309.984 74.167,310.167 74.236,310.167 74.321 C 310.167 74.406,310.579 74.528,311.083 74.591 C 311.587 74.654,312.000 74.771,312.000 74.853 C 312.000 74.934,312.258 75.000,312.573 75.000 C 312.889 75.000,313.189 75.069,313.241 75.153 C 313.293 75.236,313.898 75.358,314.584 75.422 C 315.271 75.486,315.833 75.605,315.833 75.686 C 315.833 75.767,316.156 75.833,316.550 75.833 C 316.944 75.833,317.338 75.903,317.425 75.988 C 317.512 76.074,318.579 76.197,319.797 76.262 C 321.014 76.327,322.049 76.445,322.098 76.524 C 322.216 76.714,329.788 76.709,329.905 76.518 C 329.956 76.437,330.823 76.316,331.833 76.250 C 332.843 76.184,333.711 76.063,333.761 75.982 C 333.812 75.900,334.069 75.833,334.333 75.833 C 334.598 75.833,334.855 75.767,334.905 75.686 C 334.955 75.605,335.408 75.487,335.912 75.424 C 336.416 75.362,336.871 75.240,336.924 75.155 C 336.977 75.070,337.240 75.000,337.510 75.000 C 337.779 75.000,338.000 74.926,338.000 74.835 C 338.000 74.745,338.300 74.623,338.667 74.564 C 339.033 74.505,339.333 74.392,339.333 74.312 C 339.333 74.232,339.446 74.167,339.583 74.167 C 339.721 74.167,339.833 74.100,339.833 74.019 C 339.833 73.937,340.096 73.821,340.417 73.761 C 340.737 73.701,341.000 73.580,341.000 73.492 C 341.000 73.405,341.112 73.333,341.250 73.333 C 341.387 73.333,341.500 73.258,341.500 73.167 C 341.500 73.075,341.652 73.000,341.839 73.000 C 342.025 73.000,342.220 72.887,342.273 72.750 C 342.326 72.612,342.511 72.500,342.684 72.500 C 342.858 72.500,343.000 72.423,343.000 72.329 C 343.000 72.235,343.189 72.086,343.421 71.998 C 343.652 71.910,343.885 71.725,343.939 71.586 C 343.992 71.447,344.139 71.333,344.266 71.333 C 344.643 71.333,347.333 68.519,347.333 68.124 C 347.333 68.048,347.486 67.822,347.673 67.621 C 347.860 67.421,348.056 67.086,348.108 66.878 C 348.160 66.670,348.270 66.500,348.351 66.500 C 348.433 66.500,348.500 66.396,348.500 66.269 C 348.500 66.142,348.612 65.823,348.749 65.561 C 348.886 65.298,348.998 64.930,348.999 64.742 C 349.000 64.554,349.063 64.329,349.140 64.242 C 349.482 63.855,349.750 61.952,349.750 59.917 C 349.750 57.881,349.482 55.979,349.140 55.592 C 349.063 55.505,349.000 55.316,349.000 55.173 C 349.000 54.813,348.026 52.847,347.645 52.438 C 347.474 52.254,347.333 52.051,347.333 51.986 C 347.333 51.922,347.127 51.644,346.875 51.369 C 346.623 51.095,346.306 50.712,346.172 50.518 C 346.037 50.325,345.865 50.167,345.790 50.167 C 345.625 50.167,345.270 49.885,344.792 49.375 C 344.598 49.169,344.345 49.000,344.228 49.000 C 344.112 49.000,343.957 48.900,343.883 48.779 C 343.810 48.657,343.506 48.416,343.208 48.243 C 342.910 48.070,342.667 47.869,342.667 47.797 C 342.667 47.725,342.554 47.667,342.417 47.667 C 342.279 47.667,342.167 47.597,342.167 47.511 C 342.167 47.426,342.004 47.304,341.804 47.241 C 341.605 47.178,341.287 46.980,341.096 46.802 C 340.906 46.623,340.544 46.435,340.292 46.384 C 340.040 46.333,339.833 46.226,339.833 46.146 C 339.833 46.066,339.721 46.000,339.583 46.000 C 339.446 46.000,339.333 45.926,339.333 45.837 C 339.333 45.747,339.146 45.626,338.917 45.568 C 338.688 45.511,338.500 45.397,338.500 45.315 C 338.500 45.234,338.394 45.167,338.264 45.167 C 338.134 45.167,338.003 45.110,337.972 45.042 C 337.942 44.973,337.392 44.654,336.750 44.333 C 336.108 44.012,335.546 43.709,335.500 43.658 C 335.379 43.525,334.226 43.000,334.053 43.000 C 333.973 43.000,333.799 42.850,333.667 42.667 C 333.535 42.483,333.336 42.333,333.225 42.333 C 333.114 42.333,332.923 42.240,332.801 42.125 C 332.678 42.010,332.316 41.771,331.997 41.592 C 331.678 41.413,331.230 41.094,331.002 40.884 C 330.773 40.673,330.497 40.500,330.388 40.500 C 330.279 40.500,330.136 40.331,330.072 40.125 C 330.008 39.919,329.909 39.712,329.853 39.667 C 329.013 38.984,328.995 36.064,329.827 35.500 C 329.895 35.454,330.039 35.248,330.148 35.042 C 330.256 34.835,330.455 34.667,330.589 34.667 C 330.723 34.667,330.833 34.590,330.833 34.496 C 330.833 34.402,331.023 34.253,331.254 34.165 C 331.486 34.077,331.717 33.895,331.769 33.760 C 331.821 33.624,332.189 33.467,332.598 33.406 C 333.002 33.345,333.333 33.229,333.333 33.148 C 333.333 33.066,333.515 33.000,333.736 33.000 C 333.958 33.000,334.170 32.906,334.208 32.792 C 334.302 32.510,341.538 32.532,341.632 32.814 C 341.667 32.917,342.056 33.000,342.504 33.000 C 342.949 33.000,343.354 33.065,343.403 33.145 C 343.452 33.224,343.944 33.341,344.496 33.403 C 345.048 33.465,345.500 33.588,345.500 33.675 C 345.500 33.762,345.725 33.833,346.000 33.833 C 346.275 33.833,346.500 33.900,346.500 33.981 C 346.500 34.062,346.837 34.179,347.250 34.241 C 347.662 34.303,348.000 34.424,348.000 34.510 C 348.000 34.596,348.188 34.667,348.417 34.667 C 348.646 34.667,348.833 34.741,348.833 34.831 C 348.833 34.922,349.133 35.044,349.500 35.103 C 349.867 35.161,350.167 35.275,350.167 35.355 C 350.167 35.435,350.448 35.500,350.793 35.500 C 351.482 35.500,351.751 35.134,351.947 33.929 C 352.000 33.601,352.109 33.333,352.188 33.333 C 352.268 33.333,352.333 33.150,352.333 32.927 C 352.333 32.703,352.404 32.476,352.490 32.423 C 352.577 32.369,352.698 31.990,352.759 31.579 C 352.821 31.169,352.938 30.833,353.019 30.833 C 353.100 30.833,353.167 30.646,353.167 30.417 C 353.167 30.188,353.232 30.000,353.312 30.000 C 353.392 30.000,353.506 29.697,353.565 29.326 C 353.624 28.955,353.747 28.505,353.836 28.326 C 353.926 28.147,354.083 27.838,354.185 27.640 C 354.526 26.976,354.589 25.333,354.273 25.333 C 354.123 25.333,354.000 25.258,354.000 25.167 C 354.000 25.075,353.817 25.000,353.593 25.000 C 353.369 25.000,353.145 24.932,353.093 24.850 C 353.042 24.767,352.550 24.647,352.000 24.583 C 351.450 24.520,351.000 24.400,351.000 24.317 C 351.000 24.234,350.790 24.167,350.533 24.167 C 350.277 24.167,349.988 24.088,349.892 23.992 C 349.797 23.897,349.182 23.773,348.526 23.718 C 347.870 23.663,347.333 23.554,347.333 23.476 C 347.333 23.397,347.066 23.333,346.739 23.333 C 346.412 23.333,346.006 23.259,345.837 23.168 C 345.667 23.078,344.772 22.954,343.848 22.893 C 342.923 22.833,342.167 22.720,342.167 22.642 C 342.167 22.453,333.212 22.458,333.096 22.647 M378.667 22.649 C 378.667 22.730,377.916 22.851,376.999 22.917 C 376.081 22.982,375.289 23.103,375.239 23.185 C 375.188 23.266,374.926 23.333,374.657 23.333 C 374.387 23.333,374.167 23.399,374.167 23.479 C 374.167 23.558,373.785 23.674,373.319 23.736 C 372.852 23.798,372.346 23.914,372.194 23.994 C 371.660 24.273,370.698 24.667,370.550 24.667 C 370.309 24.667,369.503 25.073,369.501 25.195 C 369.501 25.257,369.280 25.355,369.012 25.414 C 368.743 25.473,368.437 25.625,368.331 25.752 C 368.226 25.879,367.808 26.144,367.403 26.340 C 366.998 26.536,366.667 26.765,366.667 26.848 C 366.667 26.932,366.567 27.000,366.444 27.000 C 366.322 27.000,366.021 27.225,365.776 27.500 C 365.531 27.775,365.261 28.000,365.177 28.000 C 365.092 28.000,364.978 28.139,364.925 28.308 C 364.871 28.477,364.641 28.701,364.413 28.804 C 364.186 28.908,364.000 29.102,364.000 29.235 C 364.000 29.368,363.854 29.524,363.675 29.581 C 363.497 29.637,363.298 29.849,363.235 30.050 C 363.171 30.252,362.992 30.529,362.836 30.667 C 362.680 30.804,362.312 31.442,362.018 32.083 C 361.724 32.725,361.412 33.380,361.325 33.539 C 361.238 33.699,361.167 34.002,361.167 34.214 C 361.167 34.426,361.085 34.681,360.986 34.781 C 360.537 35.230,360.554 41.954,361.005 42.405 C 361.094 42.494,361.167 42.703,361.167 42.869 C 361.167 43.035,361.238 43.301,361.325 43.461 C 361.412 43.620,361.616 44.050,361.777 44.417 C 361.939 44.783,362.167 45.182,362.285 45.304 C 362.403 45.425,362.500 45.614,362.500 45.725 C 362.500 45.836,362.650 46.035,362.833 46.167 C 363.017 46.299,363.167 46.484,363.167 46.578 C 363.168 46.801,365.430 49.000,365.659 49.000 C 365.755 49.000,365.833 49.070,365.833 49.155 C 365.833 49.241,366.002 49.364,366.208 49.429 C 366.415 49.494,366.696 49.676,366.833 49.833 C 366.971 49.990,367.252 50.172,367.458 50.237 C 367.665 50.303,367.833 50.426,367.833 50.511 C 367.833 50.597,367.946 50.667,368.083 50.667 C 368.221 50.667,368.333 50.740,368.333 50.830 C 368.333 50.920,368.521 51.041,368.750 51.098 C 368.979 51.156,369.167 51.270,369.167 51.351 C 369.167 51.433,369.317 51.500,369.500 51.500 C 369.683 51.500,369.833 51.574,369.833 51.663 C 369.833 51.753,370.021 51.874,370.250 51.932 C 370.479 51.989,370.667 52.103,370.667 52.185 C 370.667 52.266,370.779 52.333,370.917 52.333 C 371.054 52.333,371.167 52.400,371.167 52.482 C 371.167 52.564,371.361 52.679,371.598 52.739 C 371.835 52.798,372.191 52.999,372.389 53.185 C 372.588 53.371,372.956 53.565,373.208 53.616 C 373.460 53.667,373.667 53.774,373.667 53.854 C 373.667 53.934,373.779 54.000,373.917 54.000 C 374.054 54.000,374.167 54.075,374.167 54.167 C 374.167 54.258,374.262 54.333,374.378 54.333 C 374.494 54.333,374.860 54.517,375.190 54.741 C 375.520 54.966,375.988 55.199,376.229 55.260 C 376.470 55.320,376.667 55.425,376.667 55.492 C 376.667 55.559,376.929 55.756,377.250 55.928 C 377.571 56.101,377.833 56.300,377.833 56.371 C 377.833 56.442,377.915 56.500,378.015 56.500 C 378.256 56.500,380.000 58.238,380.000 58.478 C 380.000 58.582,380.074 58.667,380.165 58.667 C 380.255 58.667,380.377 58.967,380.436 59.333 C 380.495 59.700,380.608 60.000,380.688 60.000 C 380.877 60.000,380.878 60.786,380.689 60.903 C 380.609 60.952,380.496 61.294,380.437 61.663 C 380.378 62.032,380.255 62.333,380.165 62.333 C 380.074 62.333,380.000 62.412,380.000 62.508 C 380.000 62.789,378.562 64.167,378.268 64.167 C 378.121 64.167,378.000 64.242,378.000 64.333 C 378.000 64.425,377.887 64.500,377.750 64.500 C 377.613 64.500,377.500 64.574,377.500 64.665 C 377.500 64.755,377.200 64.877,376.833 64.936 C 376.467 64.995,376.167 65.108,376.167 65.188 C 376.167 65.268,375.910 65.333,375.597 65.333 C 375.284 65.333,374.997 65.427,374.958 65.542 C 374.905 65.702,373.770 65.750,370.036 65.750 C 366.376 65.750,365.132 65.699,364.975 65.542 C 364.860 65.427,364.444 65.333,364.050 65.333 C 363.656 65.333,363.333 65.264,363.333 65.179 C 363.333 65.094,362.921 64.972,362.417 64.909 C 361.912 64.846,361.500 64.729,361.500 64.647 C 361.500 64.566,361.379 64.500,361.231 64.500 C 360.858 64.500,359.263 63.945,359.194 63.792 C 359.164 63.723,359.041 63.667,358.922 63.667 C 358.802 63.667,358.490 63.555,358.227 63.418 C 357.965 63.281,357.623 63.168,357.468 63.168 C 357.313 63.167,357.140 63.092,357.083 63.000 C 356.568 62.166,355.461 63.121,355.240 64.591 C 355.179 64.999,355.062 65.333,354.981 65.333 C 354.900 65.333,354.833 65.506,354.833 65.717 C 354.833 65.928,354.756 66.177,354.662 66.271 C 354.568 66.365,354.445 66.830,354.389 67.304 C 354.333 67.779,354.222 68.167,354.143 68.167 C 354.065 68.167,354.000 68.354,354.000 68.583 C 354.000 68.813,353.935 69.000,353.855 69.000 C 353.775 69.000,353.661 69.303,353.602 69.674 C 353.542 70.045,353.420 70.495,353.330 70.674 C 353.240 70.853,353.098 71.139,353.014 71.309 C 352.356 72.638,352.649 73.594,353.766 73.761 C 354.172 73.822,354.545 73.938,354.595 74.019 C 354.645 74.100,354.865 74.167,355.083 74.167 C 355.302 74.167,355.522 74.235,355.574 74.318 C 355.625 74.401,356.042 74.520,356.500 74.583 C 356.958 74.646,357.375 74.766,357.426 74.849 C 357.478 74.932,357.778 75.000,358.093 75.000 C 358.409 75.000,358.667 75.069,358.667 75.152 C 358.667 75.236,359.230 75.358,359.919 75.422 C 360.608 75.487,361.212 75.606,361.262 75.686 C 361.312 75.767,361.671 75.833,362.060 75.833 C 362.449 75.833,362.838 75.904,362.925 75.990 C 363.012 76.076,364.115 76.199,365.375 76.264 C 366.635 76.329,367.667 76.446,367.667 76.524 C 367.667 76.710,375.120 76.711,375.235 76.525 C 375.283 76.447,376.131 76.331,377.119 76.267 C 378.107 76.203,378.987 76.079,379.075 75.992 C 379.162 75.905,379.476 75.833,379.773 75.833 C 380.071 75.833,380.353 75.769,380.402 75.690 C 380.451 75.612,380.862 75.504,381.316 75.450 C 381.770 75.396,382.297 75.273,382.487 75.176 C 382.678 75.079,382.974 74.930,383.146 74.845 C 383.318 74.759,383.731 74.638,384.063 74.576 C 384.395 74.514,384.667 74.396,384.667 74.315 C 384.667 74.233,384.779 74.167,384.917 74.167 C 385.054 74.167,385.167 74.100,385.167 74.019 C 385.167 73.937,385.429 73.821,385.750 73.761 C 386.071 73.701,386.333 73.598,386.333 73.532 C 386.333 73.413,387.549 72.833,387.798 72.833 C 387.868 72.833,388.035 72.683,388.167 72.500 C 388.299 72.317,388.473 72.167,388.554 72.167 C 389.241 72.167,392.793 68.492,393.347 67.208 C 393.476 66.910,393.638 66.667,393.707 66.667 C 393.777 66.667,393.833 66.584,393.833 66.484 C 393.833 66.301,394.215 65.358,394.523 64.779 C 394.612 64.612,394.729 64.105,394.783 63.654 C 394.836 63.203,394.944 62.833,395.023 62.833 C 395.102 62.833,395.167 61.521,395.167 59.917 C 395.167 58.313,395.100 57.000,395.019 57.000 C 394.938 57.000,394.820 56.587,394.757 56.083 C 394.694 55.579,394.573 55.167,394.488 55.167 C 394.403 55.167,394.333 54.979,394.333 54.750 C 394.333 54.521,394.268 54.333,394.188 54.333 C 394.107 54.333,393.995 54.098,393.937 53.811 C 393.880 53.524,393.694 53.167,393.524 53.019 C 393.353 52.871,393.158 52.573,393.090 52.357 C 392.960 51.946,390.425 49.333,390.155 49.333 C 390.070 49.333,389.863 49.202,389.696 49.042 C 389.195 48.561,388.437 48.000,388.290 48.000 C 388.214 48.000,387.964 47.813,387.735 47.583 C 387.506 47.354,387.209 47.167,387.076 47.167 C 386.942 47.167,386.833 47.092,386.833 47.000 C 386.833 46.908,386.721 46.833,386.583 46.833 C 386.446 46.833,386.333 46.760,386.333 46.670 C 386.333 46.580,386.146 46.459,385.917 46.402 C 385.688 46.344,385.500 46.230,385.500 46.149 C 385.500 46.067,385.387 46.000,385.250 46.000 C 385.113 46.000,385.000 45.925,385.000 45.833 C 385.000 45.742,384.859 45.667,384.687 45.667 C 384.515 45.667,384.281 45.554,384.167 45.417 C 384.053 45.279,383.856 45.167,383.730 45.167 C 383.603 45.167,383.500 45.098,383.500 45.013 C 383.500 44.929,383.275 44.810,383.000 44.750 C 382.725 44.690,382.500 44.571,382.500 44.487 C 382.500 44.402,382.350 44.333,382.167 44.333 C 381.983 44.333,381.833 44.263,381.833 44.178 C 381.833 44.092,381.665 43.970,381.458 43.905 C 381.252 43.841,381.046 43.740,381.000 43.681 C 380.919 43.576,379.841 42.975,378.667 42.379 C 378.346 42.216,377.939 41.953,377.762 41.794 C 377.586 41.634,377.304 41.460,377.137 41.407 C 376.970 41.354,376.833 41.241,376.833 41.155 C 376.833 41.070,376.764 41.000,376.679 41.000 C 376.400 41.000,375.395 39.929,375.154 39.375 C 375.025 39.077,374.862 38.833,374.793 38.833 C 374.723 38.833,374.667 38.308,374.667 37.667 C 374.667 37.000,374.738 36.500,374.833 36.500 C 374.925 36.500,375.000 36.359,375.000 36.187 C 375.000 36.015,375.113 35.781,375.250 35.667 C 375.387 35.553,375.500 35.390,375.500 35.305 C 375.500 35.008,376.603 34.096,377.208 33.892 C 377.369 33.839,377.500 33.732,377.500 33.655 C 377.500 33.578,377.763 33.466,378.085 33.405 C 378.407 33.345,378.711 33.229,378.762 33.148 C 378.812 33.066,379.030 33.000,379.246 33.000 C 379.462 33.000,379.670 32.906,379.708 32.792 C 379.804 32.505,387.035 32.521,387.130 32.808 C 387.167 32.918,387.541 33.000,388.004 33.000 C 388.449 33.000,388.855 33.068,388.907 33.150 C 388.958 33.233,389.450 33.353,390.000 33.417 C 390.550 33.480,391.000 33.600,391.000 33.683 C 391.000 33.766,391.221 33.833,391.490 33.833 C 391.760 33.833,392.023 33.902,392.074 33.985 C 392.126 34.069,392.468 34.188,392.834 34.250 C 393.200 34.312,393.500 34.431,393.500 34.515 C 393.500 34.598,393.604 34.667,393.731 34.667 C 393.858 34.667,394.177 34.779,394.439 34.916 C 394.702 35.053,395.048 35.165,395.208 35.166 C 395.369 35.166,395.500 35.242,395.500 35.333 C 395.500 36.130,397.141 35.287,397.282 34.418 C 397.334 34.097,397.442 33.833,397.522 33.833 C 397.601 33.833,397.667 33.650,397.667 33.427 C 397.667 33.203,397.737 32.976,397.824 32.923 C 397.910 32.869,398.031 32.490,398.093 32.079 C 398.154 31.669,398.271 31.333,398.352 31.333 C 398.434 31.333,398.500 31.150,398.500 30.927 C 398.500 30.703,398.566 30.479,398.648 30.428 C 398.729 30.378,398.847 30.064,398.909 29.731 C 398.972 29.398,399.084 29.004,399.158 28.854 C 400.272 26.614,400.209 25.000,399.007 25.000 C 398.820 25.000,398.667 24.931,398.667 24.847 C 398.667 24.762,398.179 24.641,397.583 24.577 C 396.988 24.513,396.500 24.395,396.500 24.314 C 396.500 24.233,396.279 24.167,396.010 24.167 C 395.740 24.167,395.476 24.096,395.423 24.010 C 395.369 23.923,394.802 23.801,394.163 23.738 C 393.523 23.675,393.000 23.558,393.000 23.478 C 393.000 23.399,392.667 23.333,392.260 23.333 C 391.853 23.333,391.477 23.265,391.425 23.181 C 391.373 23.097,390.505 22.974,389.495 22.909 C 388.486 22.844,387.619 22.725,387.570 22.645 C 387.451 22.452,378.667 22.456,378.667 22.649 M290.000 32.314 C 290.000 32.396,290.349 32.514,290.774 32.578 C 291.485 32.685,292.126 32.934,292.333 33.184 C 292.379 33.239,292.684 33.410,293.011 33.563 C 293.574 33.827,295.167 35.200,295.167 35.421 C 295.167 35.477,295.260 35.628,295.375 35.756 C 295.861 36.298,296.000 36.495,296.000 36.641 C 296.000 36.726,296.112 37.010,296.249 37.273 C 296.386 37.535,296.498 37.919,296.499 38.125 C 296.500 38.331,296.575 38.500,296.667 38.500 C 296.758 38.500,296.833 38.762,296.833 39.083 C 296.833 39.404,296.908 39.667,297.000 39.667 C 297.101 39.667,297.167 40.361,297.167 41.417 C 297.167 42.385,297.097 43.167,297.012 43.167 C 296.926 43.167,296.833 43.335,296.803 43.542 C 296.769 43.783,296.616 43.936,296.375 43.970 C 296.169 43.999,296.000 44.093,296.000 44.178 C 296.000 44.272,291.546 44.333,284.667 44.333 C 273.150 44.333,272.602 44.305,273.484 43.760 C 273.567 43.708,273.689 43.273,273.755 42.791 C 273.820 42.310,273.925 41.879,273.987 41.833 C 274.143 41.719,274.667 40.576,274.667 40.350 C 274.667 40.249,274.723 40.167,274.793 40.167 C 274.862 40.167,275.024 39.923,275.153 39.625 C 275.390 39.075,276.310 37.796,276.540 37.694 C 276.610 37.664,276.667 37.562,276.667 37.469 C 276.667 37.317,278.641 35.334,279.208 34.917 C 279.650 34.592,280.088 34.330,280.463 34.169 C 280.671 34.079,280.885 33.891,280.939 33.753 C 280.992 33.614,281.177 33.500,281.350 33.500 C 281.737 33.500,283.000 32.966,283.000 32.802 C 283.000 32.737,283.452 32.632,284.004 32.570 C 284.556 32.507,285.048 32.391,285.097 32.311 C 285.215 32.120,290.000 32.123,290.000 32.314 M140.167 51.333 C 140.167 51.425,140.600 51.500,141.133 51.500 C 142.526 51.500,142.997 51.761,142.999 52.532 C 142.999 52.870,142.925 53.193,142.833 53.250 C 142.742 53.307,142.667 53.729,142.667 54.187 C 142.667 54.646,142.597 55.153,142.511 55.313 C 142.425 55.473,142.302 56.443,142.237 57.469 C 142.172 58.494,142.062 59.333,141.991 59.333 C 141.921 59.333,141.823 59.765,141.775 60.292 C 141.409 64.259,141.191 65.000,140.389 65.000 C 140.186 65.000,139.973 65.075,139.917 65.167 C 139.860 65.258,139.518 65.333,139.157 65.333 C 138.796 65.333,138.500 65.399,138.500 65.480 C 138.500 65.633,136.386 65.962,134.458 66.108 C 133.840 66.155,133.333 66.263,133.333 66.347 C 133.333 66.432,132.338 66.500,131.083 66.500 C 129.694 66.500,128.833 66.436,128.833 66.333 C 128.833 66.242,128.458 66.167,128.000 66.167 C 127.542 66.167,127.167 66.101,127.167 66.021 C 127.167 65.942,126.795 65.827,126.340 65.767 C 125.886 65.706,125.469 65.584,125.414 65.495 C 125.359 65.406,125.168 65.333,124.990 65.333 C 124.812 65.333,124.667 65.258,124.667 65.167 C 124.667 65.075,124.566 65.000,124.442 65.000 C 124.319 65.000,124.062 64.869,123.872 64.708 C 123.681 64.548,123.295 64.230,123.013 64.002 C 122.731 63.774,122.500 63.492,122.500 63.377 C 122.500 63.261,122.426 63.167,122.337 63.167 C 122.247 63.167,122.126 62.979,122.068 62.750 C 122.011 62.521,121.897 62.333,121.815 62.333 C 121.734 62.333,121.667 62.146,121.667 61.917 C 121.667 61.688,121.592 61.500,121.500 61.500 C 121.399 61.500,121.333 60.778,121.333 59.667 C 121.333 58.556,121.399 57.833,121.500 57.833 C 121.592 57.833,121.667 57.646,121.667 57.417 C 121.667 57.188,121.734 57.000,121.815 57.000 C 121.897 57.000,122.012 56.807,122.072 56.571 C 122.177 56.150,122.472 55.762,123.366 54.867 C 124.015 54.216,124.296 54.000,124.493 54.000 C 124.589 54.000,124.667 53.938,124.667 53.862 C 124.667 53.683,126.686 52.667,127.042 52.667 C 127.191 52.667,127.360 52.592,127.417 52.500 C 127.473 52.408,127.703 52.333,127.927 52.333 C 128.150 52.333,128.333 52.263,128.333 52.178 C 128.333 52.093,128.933 51.971,129.667 51.907 C 130.400 51.843,131.000 51.725,131.000 51.645 C 131.000 51.565,131.563 51.500,132.250 51.500 C 132.972 51.500,133.500 51.430,133.500 51.333 C 133.500 51.228,134.722 51.167,136.833 51.167 C 138.944 51.167,140.167 51.228,140.167 51.333 " stroke="none" fill="#144484" fill-rule="evenodd"></path><path id="path1" d="M40.500 4.224 L 40.500 8.447 62.434 30.380 C 74.498 42.444,84.339 52.398,84.305 52.502 C 84.270 52.606,75.774 61.160,65.424 71.512 L 46.605 90.334 46.198 89.959 C 45.974 89.752,37.440 81.235,27.233 71.032 L 8.676 52.480 17.921 43.246 C 24.089 37.086,27.167 33.899,27.167 33.673 C 27.167 33.211,18.847 33.133,18.465 33.591 C 18.347 33.733,18.153 33.939,18.034 34.050 C 17.915 34.160,17.727 34.347,17.617 34.466 C 17.507 34.585,17.319 34.773,17.200 34.883 C 17.081 34.993,16.894 35.181,16.784 35.300 C 16.673 35.419,16.486 35.606,16.367 35.716 C 16.248 35.827,16.061 36.014,15.950 36.133 C 15.840 36.252,15.653 36.439,15.534 36.550 C 15.415 36.660,15.227 36.847,15.117 36.966 C 15.007 37.085,14.819 37.273,14.700 37.383 C 14.581 37.493,14.394 37.681,14.284 37.800 C 14.173 37.919,13.986 38.106,13.867 38.216 C 13.748 38.327,13.561 38.514,13.450 38.633 C 13.340 38.752,13.153 38.939,13.034 39.050 C 12.915 39.160,12.727 39.347,12.617 39.466 C 12.507 39.585,12.320 39.773,12.202 39.883 C 11.924 40.143,10.310 41.757,10.050 42.035 C 9.939 42.153,9.752 42.340,9.633 42.450 C 9.514 42.561,9.327 42.748,9.216 42.867 C 9.106 42.986,8.919 43.173,8.800 43.284 C 8.681 43.394,8.493 43.581,8.383 43.700 C 8.273 43.819,8.085 44.007,7.966 44.117 C 7.847 44.227,7.660 44.415,7.550 44.534 C 7.439 44.653,7.252 44.840,7.133 44.950 C 7.014 45.061,6.827 45.248,6.716 45.367 C 6.606 45.486,6.419 45.673,6.300 45.784 C 6.181 45.894,5.993 46.081,5.883 46.200 C 5.773 46.319,5.585 46.507,5.466 46.617 C 5.347 46.727,5.160 46.915,5.050 47.034 C 4.939 47.153,4.752 47.340,4.633 47.450 C 4.514 47.561,4.327 47.748,4.216 47.867 C 4.106 47.986,3.919 48.173,3.800 48.284 C 3.681 48.394,3.493 48.581,3.383 48.700 C 3.273 48.819,3.085 49.008,2.966 49.120 C 2.711 49.361,2.664 49.407,1.160 50.906 C 0.364 51.700,-0.000 52.189,0.000 52.465 C 0.000 52.931,46.097 99.167,46.561 99.167 C 46.966 99.167,93.167 52.895,93.167 52.490 C 93.167 52.090,41.154 0.000,40.755 0.000 C 40.533 0.000,40.500 0.547,40.500 4.224 M40.503 17.708 L 40.506 22.083 55.669 37.237 C 64.010 45.572,70.833 52.420,70.833 52.455 C 70.833 52.490,65.397 57.954,58.752 64.598 L 46.671 76.676 34.586 64.596 C 27.939 57.953,22.500 52.444,22.500 52.356 C 22.500 52.268,26.668 48.029,31.762 42.935 C 36.856 37.842,40.977 33.597,40.919 33.504 C 40.852 33.395,39.277 33.333,36.558 33.333 L 32.302 33.333 22.818 42.816 C 17.601 48.031,13.333 52.382,13.333 52.484 C 13.333 52.874,46.188 85.542,46.581 85.542 C 46.914 85.542,47.734 84.783,50.450 81.958 C 50.561 81.844,50.748 81.660,50.867 81.550 C 50.986 81.439,51.173 81.252,51.284 81.133 C 51.394 81.014,51.581 80.827,51.700 80.716 C 51.819 80.606,52.007 80.419,52.117 80.300 C 52.227 80.181,52.415 79.992,52.534 79.880 C 52.653 79.768,52.835 79.590,52.938 79.485 C 53.042 79.380,54.655 77.767,56.522 75.902 C 58.389 74.037,60.007 72.414,60.117 72.297 C 60.227 72.179,60.415 71.993,60.534 71.883 C 60.653 71.773,60.840 71.585,60.950 71.466 C 61.061 71.347,61.248 71.158,61.367 71.046 C 61.642 70.787,61.954 70.476,62.213 70.200 C 62.325 70.081,62.512 69.894,62.629 69.784 C 62.965 69.466,69.561 62.874,69.784 62.634 C 69.894 62.514,70.081 62.327,70.200 62.216 C 70.319 62.106,70.507 61.919,70.617 61.800 C 70.727 61.681,70.915 61.493,71.034 61.383 C 71.153 61.273,71.340 61.085,71.450 60.966 C 71.561 60.847,71.748 60.660,71.867 60.550 C 71.986 60.439,72.173 60.252,72.284 60.133 C 72.394 60.014,72.581 59.825,72.700 59.713 C 72.819 59.601,73.013 59.413,73.130 59.296 C 73.248 59.179,74.766 57.670,76.505 55.943 C 78.366 54.095,79.667 52.674,79.667 52.490 C 79.667 52.174,40.974 13.333,40.659 13.333 C 40.562 13.333,40.501 15.037,40.503 17.708 M36.652 42.304 C 28.742 50.202,27.000 52.020,27.000 52.383 C 27.000 52.869,46.100 72.167,46.581 72.167 C 46.713 72.167,46.917 72.054,47.035 71.916 C 47.203 71.720,51.572 67.328,52.542 66.380 C 52.892 66.037,53.166 65.760,53.380 65.534 C 53.492 65.415,53.681 65.227,53.800 65.117 C 53.919 65.007,54.106 64.819,54.216 64.700 C 54.327 64.581,54.514 64.394,54.633 64.284 C 54.752 64.173,54.939 63.986,55.050 63.867 C 55.160 63.748,55.347 63.561,55.466 63.450 C 55.585 63.340,55.773 63.153,55.883 63.034 C 55.993 62.915,56.181 62.727,56.300 62.617 C 56.419 62.507,56.606 62.319,56.716 62.200 C 56.827 62.081,57.014 61.894,57.133 61.784 C 57.252 61.673,57.439 61.489,57.550 61.375 C 57.829 61.083,61.118 57.794,61.374 57.550 C 61.489 57.439,61.673 57.252,61.784 57.133 C 61.894 57.014,62.081 56.827,62.200 56.716 C 62.319 56.606,62.507 56.419,62.617 56.300 C 62.727 56.181,62.915 55.993,63.034 55.883 C 63.153 55.773,63.340 55.585,63.450 55.466 C 63.561 55.347,63.748 55.160,63.867 55.050 C 63.986 54.939,64.173 54.752,64.284 54.633 C 64.394 54.514,64.581 54.327,64.700 54.216 C 64.819 54.106,65.007 53.919,65.117 53.800 C 65.227 53.681,65.415 53.493,65.534 53.383 C 66.427 52.556,66.381 52.376,64.915 50.960 C 64.227 50.294,63.571 49.660,63.457 49.550 C 63.343 49.439,63.160 49.252,63.050 49.133 C 62.939 49.014,62.752 48.827,62.633 48.716 C 62.514 48.606,62.325 48.419,62.213 48.300 C 62.101 48.181,61.913 47.988,61.796 47.870 C 61.679 47.753,61.486 47.566,61.367 47.454 C 61.248 47.342,61.061 47.153,60.950 47.034 C 60.840 46.915,60.653 46.727,60.534 46.617 C 60.415 46.507,60.227 46.321,60.117 46.205 C 59.792 45.861,54.037 40.102,53.800 39.883 C 53.681 39.773,53.493 39.585,53.383 39.466 C 53.273 39.347,53.085 39.160,52.966 39.050 C 52.847 38.939,52.658 38.752,52.546 38.633 C 52.287 38.358,51.976 38.046,51.700 37.787 C 51.581 37.675,51.394 37.486,51.284 37.367 C 51.173 37.248,50.986 37.061,50.867 36.950 C 50.748 36.840,50.561 36.656,50.450 36.542 C 48.108 34.109,46.633 32.667,46.487 32.667 C 46.386 32.667,41.961 37.003,36.652 42.304 M52.027 47.147 L 57.355 52.461 52.014 57.814 C 49.077 60.758,46.632 63.167,46.582 63.167 C 46.532 63.167,45.631 62.323,44.580 61.292 C 43.529 60.260,42.575 59.327,42.460 59.216 C 42.344 59.106,42.160 58.919,42.050 58.800 C 41.939 58.681,41.752 58.493,41.633 58.383 C 41.514 58.273,41.327 58.085,41.216 57.966 C 41.106 57.847,40.919 57.660,40.800 57.550 C 40.681 57.439,40.492 57.252,40.380 57.133 C 40.268 57.014,40.080 56.821,39.963 56.704 C 37.335 54.080,35.812 52.461,35.887 52.367 C 36.465 51.642,46.309 41.866,46.475 41.852 C 46.599 41.842,49.097 44.225,52.027 47.147 " stroke="none" fill="#fc640c" fill-rule="evenodd"></path><path id="path2" d="" stroke="none" fill="#4c5488" fill-rule="evenodd"></path><path id="path3" d="" stroke="none" fill="#4c5488" fill-rule="evenodd"></path><path id="path4" d="" stroke="none" fill="#4c5488" fill-rule="evenodd"></path></g></svg>